<?xml version="1.0" encoding="UTF-8" standalone="no"?>
<!DOCTYPE svg PUBLIC "-//W3C//DTD SVG 1.1//EN"
 "http://www.w3.org/Graphics/SVG/1.1/DTD/svg11.dtd">
<!-- Generated by graphviz version 13.1.2 (20250808.2320)
 -->
<!-- Pages: 1 -->
<svg width="725pt" height="160pt"
 viewBox="0.00 0.00 725.00 160.00" xmlns="http://www.w3.org/2000/svg" xmlns:xlink="http://www.w3.org/1999/xlink">
<g id="graph0" class="graph" transform="scale(1 1) rotate(0) translate(4 156)">
<polygon fill="white" stroke="none" points="-4,4 -4,-156 721.25,-156 721.25,4 -4,4"/>
<!-- 139624450395184 -->
<g id="node1" class="node">
<title>139624450395184</title>
<polygon fill="none" stroke="black" points="425,-34.5 425,-83.5 504.75,-83.5 504.75,-34.5 425,-34.5"/>
<text xml:space="preserve" text-anchor="middle" x="464.88" y="-66.2" font-family="Times,serif" font-size="14.00">d</text>
<polyline fill="none" stroke="black" points="425,-59 504.75,-59"/>
<text xml:space="preserve" text-anchor="middle" x="464.88" y="-41.7" font-family="Times,serif" font-size="14.00">data 4.0000</text>
</g>
<!-- 139624454629552* -->
<g id="node6" class="node">
<title>139624454629552*</title>
<ellipse fill="none" stroke="black" cx="570" cy="-93" rx="27" ry="18"/>
<text xml:space="preserve" text-anchor="middle" x="570" y="-87.95" font-family="Times,serif" font-size="14.00">*</text>
</g>
<!-- 139624450395184&#45;&gt;139624454629552* -->
<g id="edge6" class="edge">
<title>139624450395184&#45;&gt;139624454629552*</title>
<path fill="none" stroke="black" d="M505.16,-71.95C514.89,-75.16 525.25,-78.58 534.73,-81.7"/>
<polygon fill="black" stroke="black" points="533.33,-84.92 543.92,-84.73 535.52,-78.28 533.33,-84.92"/>
</g>
<!-- 139624450395184+ -->
<g id="node2" class="node">
<title>139624450395184+</title>
<ellipse fill="none" stroke="black" cx="359.75" cy="-59" rx="27" ry="18"/>
<text xml:space="preserve" text-anchor="middle" x="359.75" y="-53.95" font-family="Times,serif" font-size="14.00">+</text>
</g>
<!-- 139624450395184+&#45;&gt;139624450395184 -->
<g id="edge1" class="edge">
<title>139624450395184+&#45;&gt;139624450395184</title>
<path fill="none" stroke="black" d="M387.04,-59C395.1,-59 404.25,-59 413.35,-59"/>
<polygon fill="black" stroke="black" points="413.26,-62.5 423.26,-59 413.26,-55.5 413.26,-62.5"/>
</g>
<!-- 139624451829392 -->
<g id="node3" class="node">
<title>139624451829392</title>
<polygon fill="none" stroke="black" points="0,-102.5 0,-151.5 84.25,-151.5 84.25,-102.5 0,-102.5"/>
<text xml:space="preserve" text-anchor="middle" x="42.12" y="-134.2" font-family="Times,serif" font-size="14.00">b</text>
<polyline fill="none" stroke="black" points="0,-127 84.25,-127"/>
<text xml:space="preserve" text-anchor="middle" x="42.12" y="-109.7" font-family="Times,serif" font-size="14.00">data &#45;3.0000</text>
</g>
<!-- 139624450394880* -->
<g id="node8" class="node">
<title>139624450394880*</title>
<ellipse fill="none" stroke="black" cx="147.25" cy="-93" rx="27" ry="18"/>
<text xml:space="preserve" text-anchor="middle" x="147.25" y="-87.95" font-family="Times,serif" font-size="14.00">*</text>
</g>
<!-- 139624451829392&#45;&gt;139624450394880* -->
<g id="edge4" class="edge">
<title>139624451829392&#45;&gt;139624450394880*</title>
<path fill="none" stroke="black" d="M84.48,-113.37C93.44,-110.41 102.83,-107.32 111.5,-104.46"/>
<polygon fill="black" stroke="black" points="112.56,-107.79 120.97,-101.34 110.37,-101.14 112.56,-107.79"/>
</g>
<!-- 139624452134560 -->
<g id="node4" class="node">
<title>139624452134560</title>
<polygon fill="none" stroke="black" points="2.25,-34.5 2.25,-83.5 82,-83.5 82,-34.5 2.25,-34.5"/>
<text xml:space="preserve" text-anchor="middle" x="42.12" y="-66.2" font-family="Times,serif" font-size="14.00">a</text>
<polyline fill="none" stroke="black" points="2.25,-59 82,-59"/>
<text xml:space="preserve" text-anchor="middle" x="42.12" y="-41.7" font-family="Times,serif" font-size="14.00">data 2.0000</text>
</g>
<!-- 139624452134560&#45;&gt;139624450394880* -->
<g id="edge7" class="edge">
<title>139624452134560&#45;&gt;139624450394880*</title>
<path fill="none" stroke="black" d="M82.41,-71.95C92.14,-75.16 102.5,-78.58 111.98,-81.7"/>
<polygon fill="black" stroke="black" points="110.58,-84.92 121.17,-84.73 112.77,-78.28 110.58,-84.92"/>
</g>
<!-- 139624454629552 -->
<g id="node5" class="node">
<title>139624454629552</title>
<polygon fill="none" stroke="black" points="633,-68.5 633,-117.5 717.25,-117.5 717.25,-68.5 633,-68.5"/>
<text xml:space="preserve" text-anchor="middle" x="675.12" y="-100.2" font-family="Times,serif" font-size="14.00">L</text>
<polyline fill="none" stroke="black" points="633,-93 717.25,-93"/>
<text xml:space="preserve" text-anchor="middle" x="675.12" y="-75.7" font-family="Times,serif" font-size="14.00">data &#45;8.0000</text>
</g>
<!-- 139624454629552*&#45;&gt;139624454629552 -->
<g id="edge2" class="edge">
<title>139624454629552*&#45;&gt;139624454629552</title>
<path fill="none" stroke="black" d="M597.29,-93C604.67,-93 612.98,-93 621.32,-93"/>
<polygon fill="black" stroke="black" points="621.14,-96.5 631.14,-93 621.14,-89.5 621.14,-96.5"/>
</g>
<!-- 139624450394880 -->
<g id="node7" class="node">
<title>139624450394880</title>
<polygon fill="none" stroke="black" points="211.38,-68.5 211.38,-117.5 295.62,-117.5 295.62,-68.5 211.38,-68.5"/>
<text xml:space="preserve" text-anchor="middle" x="253.5" y="-100.2" font-family="Times,serif" font-size="14.00">e</text>
<polyline fill="none" stroke="black" points="211.38,-93 295.62,-93"/>
<text xml:space="preserve" text-anchor="middle" x="253.5" y="-75.7" font-family="Times,serif" font-size="14.00">data &#45;6.0000</text>
</g>
<!-- 139624450394880&#45;&gt;139624450395184+ -->
<g id="edge9" class="edge">
<title>139624450394880&#45;&gt;139624450395184+</title>
<path fill="none" stroke="black" d="M296,-79.46C305.34,-76.42 315.16,-73.22 324.18,-70.27"/>
<polygon fill="black" stroke="black" points="325.23,-73.61 333.65,-67.18 323.06,-66.96 325.23,-73.61"/>
</g>
<!-- 139624450394880*&#45;&gt;139624450394880 -->
<g id="edge3" class="edge">
<title>139624450394880*&#45;&gt;139624450394880</title>
<path fill="none" stroke="black" d="M174.56,-93C182.27,-93 191,-93 199.75,-93"/>
<polygon fill="black" stroke="black" points="199.67,-96.5 209.67,-93 199.67,-89.5 199.67,-96.5"/>
</g>
<!-- 139624451830032 -->
<g id="node9" class="node">
<title>139624451830032</title>
<polygon fill="none" stroke="black" points="210.25,-0.5 210.25,-49.5 296.75,-49.5 296.75,-0.5 210.25,-0.5"/>
<text xml:space="preserve" text-anchor="middle" x="253.5" y="-32.2" font-family="Times,serif" font-size="14.00">c</text>
<polyline fill="none" stroke="black" points="210.25,-25 296.75,-25"/>
<text xml:space="preserve" text-anchor="middle" x="253.5" y="-7.7" font-family="Times,serif" font-size="14.00">data 10.0000</text>
</g>
<!-- 139624451830032&#45;&gt;139624450395184+ -->
<g id="edge8" class="edge">
<title>139624451830032&#45;&gt;139624450395184+</title>
<path fill="none" stroke="black" d="M297.2,-38.93C306.2,-41.86 315.58,-44.92 324.22,-47.74"/>
<polygon fill="black" stroke="black" points="323.04,-51.04 333.64,-50.81 325.21,-44.38 323.04,-51.04"/>
</g>
<!-- 139624450379216 -->
<g id="node10" class="node">
<title>139624450379216</title>
<polygon fill="none" stroke="black" points="422.75,-102.5 422.75,-151.5 507,-151.5 507,-102.5 422.75,-102.5"/>
<text xml:space="preserve" text-anchor="middle" x="464.88" y="-134.2" font-family="Times,serif" font-size="14.00">f</text>
<polyline fill="none" stroke="black" points="422.75,-127 507,-127"/>
<text xml:space="preserve" text-anchor="middle" x="464.88" y="-109.7" font-family="Times,serif" font-size="14.00">data &#45;2.0000</text>
</g>
<!-- 139624450379216&#45;&gt;139624454629552* -->
<g id="edge5" class="edge">
<title>139624450379216&#45;&gt;139624454629552*</title>
<path fill="none" stroke="black" d="M507.23,-113.37C516.19,-110.41 525.58,-107.32 534.25,-104.46"/>
<polygon fill="black" stroke="black" points="535.31,-107.79 543.72,-101.34 533.12,-101.14 535.31,-107.79"/>
</g>
</g>
</svg>
